<svg width="874" height="488" viewBox="0 0 874 488" fill="none" xmlns="http://www.w3.org/2000/svg">
<g clip-path="url(#clip0_1954_437)">
<path d="M235.568 116.709H264.674L296.47 203.111H296.919L328.052 116.709H356.241L312.261 231.3H280.679L235.568 116.709Z" fill="white"/>
<path d="M450.538 142.19C447.146 141.507 443.091 141.293 439.484 141.293C421.881 141.293 407.22 153.477 407.22 178.294V231.301H378.349V116.71H406.772V142.424C412.192 124.605 425.487 114.683 441.96 114.683C444.884 114.683 448.043 114.917 450.538 115.579V142.19Z" fill="white"/>
<path d="M464.519 116.709H493.839L525.635 203.111H526.083L556.32 116.709H584.977L540.314 233.328C529.495 261.985 516.18 273.038 492.045 273.253C488.205 273.253 482.805 272.805 478.73 272.122V250.249C482.122 250.931 483.916 250.931 486.392 250.931C498.128 250.931 503.079 246.876 509.181 231.086L464.519 116.709Z" fill="white"/>
<path d="M683.541 207.38C678.121 218.434 665.489 228.357 647.222 228.357C617.005 228.357 596.691 205.353 596.691 171.061C596.691 136.77 616.985 114 647.222 114C665.489 114 678.57 124.371 683.989 135.425V116.71H712.413V220.013C712.413 257.462 688.278 274.15 654.221 274.15C623.321 274.15 603.476 261.283 599.187 238.513H627.844C631.002 249.801 640.925 253.856 654.24 253.856C672.507 253.856 683.56 244.381 683.56 223.639V207.4L683.541 207.38ZM684.672 168.586C684.672 148.291 672.487 134.976 654.903 134.976C636.402 134.976 625.583 149.188 625.583 171.061C625.583 192.935 636.402 207.146 654.903 207.146C673.404 207.146 684.672 193.831 684.672 173.303V168.566V168.586Z" fill="white"/>
<path d="M759.066 116.709H730.447V145.328H759.066V116.709Z" fill="#32B26E"/>
<path d="M224.302 171.744C224.302 141.293 207.166 114 171.295 114C160.749 114 150.982 116.456 142.599 121.038V145.348H120.004C116.164 153.594 114 163.283 114 174.239C114 211.689 138.583 234.01 171.978 234.01C198.14 234.01 218.668 220.247 223.639 195.664H197.028C193.188 206.717 185.078 212.8 171.997 212.8C154.179 212.8 143.808 201.298 141.995 181.004H224.321V171.763L224.302 171.744ZM142.872 162.269C146.03 144.665 156.187 135.425 171.295 135.425C188.665 135.425 196.795 148.057 196.795 162.269H142.872Z" fill="white"/>
</g>
<path d="M648.226 365.501C647.004 371.185 642.383 374 637.178 374C629.635 374 624.323 368.741 624.323 360.136C624.323 351.425 629.794 346.007 636.912 346.007C644.826 346.007 648.385 352.328 648.385 359.18V360.933H628.626C628.838 367.095 632.078 370.494 637.178 370.494C640.79 370.494 642.967 368.741 644.083 365.501H648.226ZM636.912 349.566C632.716 349.566 629.529 352.275 628.785 357.746H644.083C643.977 353.125 641.693 349.566 636.912 349.566Z" fill="#32B26E"/>
<path d="M619.422 369.432V373.044C617.457 373.628 615.916 373.787 614.748 373.787C609.861 373.787 607.364 371.45 607.364 366.51V349.991H603.434V346.645H607.364V339.846H611.72V346.645H618.731V349.991H611.667V366.298C611.667 369.113 613.101 370.069 615.544 370.069C616.553 370.069 617.722 369.963 619.422 369.432Z" fill="#32B26E"/>
<path d="M577.32 365.448H581.57C581.888 369.113 585.288 370.654 588.9 370.654C592.565 370.654 595.221 368.954 595.221 366.086C595.221 364.12 593.946 362.845 590.546 362.208L585.819 361.252C581.517 360.455 578.383 358.702 578.383 354.028C578.383 349.513 582.42 346.007 588.316 346.007C594.477 346.007 598.248 348.663 598.78 353.709H594.69C594.371 351 591.981 349.407 588.316 349.407C584.757 349.407 582.473 351.16 582.473 353.762C582.473 356.046 584.066 357.003 587.147 357.587L592.459 358.596C596.814 359.446 599.364 361.571 599.364 365.873C599.364 370.547 594.955 374 588.953 374C582.579 374 577.798 371.185 577.32 365.448Z" fill="#32B26E"/>
<path d="M565.436 341.067V335.703H570.429V341.067H565.436ZM565.754 373.363V346.645H570.163V373.363H565.754Z" fill="#32B26E"/>
<path d="M538.258 373.363H533.53L543.676 359.605L534.061 346.645H539.267L546.385 356.471L553.449 346.645H558.23L548.775 359.393L559.08 373.363H553.927L546.013 362.633L538.258 373.363Z" fill="#32B26E"/>
<path d="M529.802 365.501C528.58 371.185 523.959 374 518.754 374C511.211 374 505.899 368.741 505.899 360.136C505.899 351.425 511.37 346.007 518.488 346.007C526.403 346.007 529.961 352.328 529.961 359.18V360.933H510.202C510.414 367.095 513.654 370.494 518.754 370.494C522.366 370.494 524.543 368.741 525.659 365.501H529.802ZM518.488 349.566C514.292 349.566 511.105 352.275 510.361 357.746H525.659C525.553 353.125 523.269 349.566 518.488 349.566Z" fill="#32B26E"/>
<path d="M468.905 346.645V351.531C470.179 348.238 473.526 346.007 477.616 346.007C483.618 346.007 487.177 349.779 487.177 356.153V373.363H482.768V357.109C482.768 352.169 480.59 349.619 476.394 349.619C472.304 349.619 469.064 352.222 469.064 358.649V373.363H464.655V346.645H468.905Z" fill="#32B26E"/>
<path d="M457.164 360.03C457.164 368.635 451.853 374 444.469 374C437.086 374 431.774 368.635 431.774 360.03C431.774 351.425 437.086 346.007 444.469 346.007C451.853 346.007 457.164 351.425 457.164 360.03ZM436.13 360.03C436.13 366.457 439.264 370.441 444.469 370.441C449.675 370.441 452.809 366.457 452.809 360.03C452.809 353.603 449.675 349.566 444.469 349.566C439.264 349.566 436.13 353.603 436.13 360.03Z" fill="#32B26E"/>
<path d="M419.571 341.067V335.703H424.564V341.067H419.571ZM419.89 373.363V346.645H424.299V373.363H419.89Z" fill="#32B26E"/>
<path d="M412.711 369.432V373.044C410.746 373.628 409.205 373.787 408.037 373.787C403.15 373.787 400.653 371.45 400.653 366.51V349.991H396.723V346.645H400.653V339.846H405.009V346.645H412.02V349.991H404.956V366.298C404.956 369.113 406.39 370.069 408.833 370.069C409.843 370.069 411.011 369.963 412.711 369.432Z" fill="#32B26E"/>
<path d="M390.838 373.363H386.536V368.529C385.261 371.875 382.074 374 378.037 374C371.982 374 368.582 370.335 368.582 363.855V346.645H373.044V363.005C373.044 367.945 375.115 370.547 379.312 370.547C383.349 370.547 386.376 367.785 386.376 361.358V346.645H390.838V373.363Z" fill="#32B26E"/>
<path d="M359.406 373.363H354.997V334.269H359.406V373.363Z" fill="#32B26E"/>
<path d="M347.507 360.03C347.507 368.635 342.195 374 334.812 374C327.429 374 322.117 368.635 322.117 360.03C322.117 351.425 327.429 346.007 334.812 346.007C342.195 346.007 347.507 351.425 347.507 360.03ZM326.473 360.03C326.473 366.457 329.607 370.441 334.812 370.441C340.018 370.441 343.152 366.457 343.152 360.03C343.152 353.603 340.018 349.566 334.812 349.566C329.607 349.566 326.473 353.603 326.473 360.03Z" fill="#32B26E"/>
<path d="M294.409 365.448H298.659C298.977 369.113 302.377 370.654 305.989 370.654C309.654 370.654 312.31 368.954 312.31 366.086C312.31 364.12 311.035 362.845 307.635 362.208L302.908 361.252C298.605 360.455 295.472 358.702 295.472 354.028C295.472 349.513 299.508 346.007 305.404 346.007C311.566 346.007 315.337 348.663 315.868 353.709H311.778C311.46 351 309.069 349.407 305.404 349.407C301.846 349.407 299.562 351.16 299.562 353.762C299.562 356.046 301.155 357.003 304.236 357.587L309.548 358.596C313.903 359.446 316.453 361.571 316.453 365.873C316.453 370.547 312.044 374 306.042 374C299.668 374 294.887 371.185 294.409 365.448Z" fill="#32B26E"/>
<path d="M272.23 373.363C271.912 371.875 271.752 370.122 271.752 368.848C270.584 371.982 266.919 373.947 262.457 373.947C257.783 373.947 253.799 371.238 253.799 366.298C253.799 361.146 257.623 358.915 263.041 358.277L271.646 357.162V355.622C271.646 351.372 269.043 349.566 265.378 349.566C261.82 349.566 259.589 351.425 259.27 354.506H255.021C255.552 349.088 259.801 346.007 265.485 346.007C271.965 346.007 276.002 349.088 276.002 355.515V367.785C276.002 369.751 276.108 371.61 276.639 373.363H272.23ZM263.36 370.601C267.503 370.601 271.646 367.998 271.646 362.845V360.455L264.369 361.252C261.023 361.73 258.261 362.58 258.261 366.192C258.261 368.688 260.014 370.601 263.36 370.601Z" fill="#32B26E"/>
<path d="M223.092 373.363V335.437H227.66V369.538H248.057V373.363H223.092Z" fill="#32B26E"/>
<defs>
<clipPath id="clip0_1954_437">
<rect width="645.084" height="160.15" fill="white" transform="translate(114 114)"/>
</clipPath>
</defs>
</svg>
